<svg xmlns="http://www.w3.org/2000/svg" xmlns:xlink="http://www.w3.org/1999/xlink" width="204px" height="123px" version="1.1" style="background-color: rgb(255, 255, 255);"><defs/><g transform="translate(0.5,0.5)"><path d="M 1.32 51.06 L 201.32 51.06" fill="none" stroke="#000000" stroke-width="2" stroke-miterlimit="10" pointer-events="none"/><path d="M 33.99 9.84 L 44.03 18.69 L 33.99 27.35" fill="none" stroke="#000000" stroke-width="3" stroke-linejoin="round" stroke-linecap="round" stroke-miterlimit="10" pointer-events="none"/><path d="M 8.61 50.56 L 8.61 18.69 L 42.85 18.69" fill="none" stroke="#000000" stroke-width="3" stroke-linejoin="round" stroke-linecap="round" stroke-miterlimit="10" pointer-events="none"/><g fill="#000000" font-family="Arial,Helvetica" text-anchor="middle" font-size="13.999999999999998px"><text x="26.32" y="116.72">Pro</text></g><path d="M 63.82 50.56 L 88.82 50.56 L 88.82 45.75 C 88.82 36.13 83.05 31.33 76.32 31.33 C 69.59 31.33 63.82 36.13 63.82 45.75 Z" fill="#ffffff" stroke="#000000" stroke-width="2.34" stroke-linejoin="round" stroke-linecap="round" stroke-miterlimit="10" pointer-events="none"/><g fill="#000000" font-family="Arial,Helvetica" text-anchor="middle" font-size="13.999999999999998px"><text x="76.32" y="116.72">RBS</text></g><path d="M 107.57 62.95 L 133.24 62.95 L 145.07 50.56 L 133.24 38.16 L 107.57 38.16 Z" fill="#ffffff" stroke="#000000" stroke-width="3" stroke-linejoin="round" stroke-linecap="round" stroke-miterlimit="10" pointer-events="none"/><g fill="#000000" font-family="Arial,Helvetica" text-anchor="middle" font-size="13.999999999999998px"><text x="126.32" y="116.72">CDS</text></g><path d="M 176.32 50.56 L 176.32 23.89" fill="none" stroke="#000000" stroke-width="3" stroke-linejoin="round" stroke-linecap="round" stroke-miterlimit="10" pointer-events="none"/><path d="M 159.65 22.78 L 192.99 22.78" fill="none" stroke="#000000" stroke-width="3" stroke-linejoin="round" stroke-linecap="round" stroke-miterlimit="10" pointer-events="none"/><g fill="#000000" font-family="Arial,Helvetica" text-anchor="middle" font-size="13.999999999999998px"><text x="176.32" y="116.72">Ter</text></g></g></svg>